<svg xmlns="http://www.w3.org/2000/svg" viewBox="0 0 1024 1024">
  <defs>
    <linearGradient id="bg" x1="128" y1="96" x2="896" y2="928" gradientUnits="userSpaceOnUse">
      <stop stop-color="#18243a"/>
      <stop offset="1" stop-color="#090d17"/>
    </linearGradient>
    <linearGradient id="rim" x1="176" y1="128" x2="836" y2="888" gradientUnits="userSpaceOnUse">
      <stop stop-color="#9fd2ff"/>
      <stop offset=".45" stop-color="#5d87ff"/>
      <stop offset="1" stop-color="#ae7cff"/>
    </linearGradient>
    <filter id="glow" x="-40%" y="-40%" width="180%" height="180%">
      <feGaussianBlur stdDeviation="18" result="blur"/>
      <feMerge>
        <feMergeNode in="blur"/>
        <feMergeNode in="SourceGraphic"/>
      </feMerge>
    </filter>
  </defs>
  <rect x="70" y="70" width="884" height="884" rx="220" fill="#05070d"/>
  <rect x="82" y="82" width="860" height="860" rx="208" fill="url(#bg)" stroke="url(#rim)" stroke-width="20"/>
  <g fill="none" stroke-linecap="round" stroke-linejoin="round">
    <path d="M240 256Q240 222 274 222H455V455H240Z" stroke="#69b7ff" stroke-width="28"/>
    <path d="M569 222H750Q784 222 784 256V455H569Z" stroke="#ff8b72" stroke-width="28"/>
    <path d="M240 569H455V802H274Q240 802 240 768Z" stroke="#b188ff" stroke-width="28"/>
    <path d="M569 569H784V768Q784 802 750 802H569Z" stroke="#62d8b4" stroke-width="28"/>
    <g filter="url(#glow)" stroke-width="24">
      <path d="m304 322 54 50-54 50M382 422h30" stroke="#69b7ff"/>
      <path d="m633 322 54 50-54 50M711 422h30" stroke="#ff8b72"/>
      <path d="m304 635 54 50-54 50M382 735h30" stroke="#b188ff"/>
      <path d="m633 635 54 50-54 50M711 735h30" stroke="#62d8b4"/>
    </g>
  </g>
</svg>
